<svg width="35" height="35" viewBox="0 0 44 50" fill="none" xmlns="http://www.w3.org/2000/svg">
<path d="M22 50C23.6576 50 25.2473 49.3415 26.4194 48.1694C27.5915 46.9973 28.25 45.4076 28.25 43.75H15.75C15.75 45.4076 16.4085 46.9973 17.5806 48.1694C18.7527 49.3415 20.3424 50 22 50ZM25.1094 3.43433C25.153 2.99981 25.105 2.56098 24.9686 2.14612C24.8322 1.73127 24.6104 1.34961 24.3174 1.02576C24.0245 0.701915 23.6669 0.443065 23.2677 0.265909C22.8686 0.0887525 22.4367 -0.0027771 22 -0.0027771C21.5633 -0.0027771 21.1314 0.0887525 20.7323 0.265909C20.3331 0.443065 19.9755 0.701915 19.6826 1.02576C19.3896 1.34961 19.1678 1.73127 19.0314 2.14612C18.895 2.56098 18.847 2.99981 18.8906 3.43433C15.358 4.15168 12.182 6.06844 9.90098 8.85975C7.61998 11.6511 6.37428 15.1452 6.375 18.75C6.375 22.1812 4.8125 37.5 0.125 40.625H43.875C39.1875 37.5 37.625 22.1812 37.625 18.75C37.625 11.1875 32.25 4.87496 25.1094 3.43433Z" fill="#004445"/>
</svg>
